<?xml version="1.0" encoding="UTF-8" standalone="no"?>
<svg
   xmlns:dc="http://purl.org/dc/elements/1.1/"
   xmlns:cc="http://creativecommons.org/ns#"
   xmlns:rdf="http://www.w3.org/1999/02/22-rdf-syntax-ns#"
   xmlns:svg="http://www.w3.org/2000/svg"
   xmlns="http://www.w3.org/2000/svg"
   xmlns:sodipodi="http://sodipodi.sourceforge.net/DTD/sodipodi-0.dtd"
   xmlns:inkscape="http://www.inkscape.org/namespaces/inkscape"
   inkscape:version="1.0 (4035a4fb49, 2020-05-01)"
   sodipodi:docname="blurt__power_logo.svg"
   xml:space="preserve"
   enable-background="new 0 0 400 308.7011414"
   viewBox="0 0 400 308.7011414"
   y="0px"
   x="0px"
   id="svg"
   version="1.1"><metadata
   id="metadata910"><rdf:RDF><cc:Work
       rdf:about=""><dc:format>image/svg+xml</dc:format><dc:type
         rdf:resource="http://purl.org/dc/dcmitype/StillImage" /><dc:title></dc:title></cc:Work></rdf:RDF></metadata><defs
   id="defs908" /><sodipodi:namedview
   inkscape:current-layer="svg"
   inkscape:window-maximized="1"
   inkscape:window-y="-8"
   inkscape:window-x="1912"
   inkscape:cy="154.35057"
   inkscape:cx="253.8278"
   inkscape:zoom="2.5531695"
   inkscape:guide-bbox="true"
   showguides="true"
   showgrid="false"
   id="namedview906"
   inkscape:window-height="1017"
   inkscape:window-width="1920"
   inkscape:pageshadow="2"
   inkscape:pageopacity="0"
   guidetolerance="10"
   gridtolerance="10"
   objecttolerance="10"
   borderopacity="1"
   bordercolor="#666666"
   pagecolor="#ffffff"><sodipodi:guide
     id="guide1632"
     orientation="0,-1"
     position="272.60234,312.22617" /></sodipodi:namedview>


<g
   id="g1650"><g
     id="g1485"
     transform="translate(-22.325195,-4.7000405)"><circle
       id="circle890"
       r="123.97264"
       cy="154.58148"
       cx="199.92184"
       fill="#ec1c24"
       clip-rule="evenodd"
       fill-rule="evenodd" /><g
       id="svgg">
	<path
   d="m 136.67705,75.650833 c -4.41075,1.160828 -6.70136,6.166618 -4.65409,10.166374 0.87427,1.707962 2.01813,2.196732 6.00486,2.561943 3.19693,0.293267 3.54083,0.37201 10.12561,2.317574 12.93206,3.820534 26.20947,12.287076 35.81053,22.836296 7.59312,8.34164 13.15791,1.24093 7.35997,-9.39112 -9.02257,-16.548844 -39.54952,-32.463647 -54.64688,-28.491067"
   fill="#040404"
   clip-rule="evenodd"
   fill-rule="evenodd"
   id="Left_Eyebrow" />
	<path
   d="m 245.48059,79.685906 c -18.45026,3.381507 -39.3813,19.714187 -39.3813,30.730764 0,5.41937 4.06444,5.64655 9.24063,0.5152 3.8938,-3.86228 4.40701,-4.31093 8.08749,-7.0843 2.84926,-2.14801 10.60581,-6.989065 11.19788,-6.989065 0.13187,0 0.91011,-0.36718 1.72971,-0.815826 2.02575,-1.108429 6.77148,-2.847954 10.87341,-3.985069 5.02365,-1.392991 5.57048,-1.510033 8.18574,-1.75673 4.694,-0.441764 5.79026,-1.401023 5.79026,-5.068244 0,-5.153153 -6.10828,-7.30806 -15.72382,-5.54673"
   fill="#040404"
   clip-rule="evenodd"
   fill-rule="evenodd"
   id="Right_Eyebrow" />
	<path
   d="m 164.85742,108.47566 c -3.91331,0.72553 -10.47932,6.42931 -10.47932,9.10169 0,0.22867 -0.12299,0.46588 -0.27353,0.52678 -0.42623,0.17203 -1.9466,4.8137 -2.4131,7.37068 -0.76549,4.1961 -0.27141,14.0404 0.76126,15.16557 0.15796,0.17203 0.28731,0.58235 0.28731,0.91251 0,0.32911 0.13465,0.85591 0.29898,1.17111 0.16433,0.31522 0.73581,1.47777 1.2691,2.58476 2.80962,5.82346 7.74394,9.37523 13.026,9.37523 1.31787,0 2.47563,-0.1293 2.57318,-0.28743 0.0965,-0.15814 0.63932,-0.38145 1.20548,-0.49472 1.60309,-0.32378 5.11456,-3.05171 6.67311,-5.18449 1.80238,-2.4683 3.46693,-5.92603 4.11687,-8.55568 3.02378,-12.22605 -0.36472,-24.19672 -8.55182,-30.21465 -1.70592,-1.25338 -5.8228,-1.96608 -8.49352,-1.47136"
   fill="#040404"
   clip-rule="evenodd"
   fill-rule="evenodd"
   id="Left_Eye" />
	<path
   d="m 229.05624,106.90874 c -5.07692,0.99016 -9.96637,6.39425 -12.19871,13.48396 -0.38794,1.23241 -0.87343,2.77739 -1.07823,3.43267 -0.98937,3.1681 -0.17012,16.2915 1.10858,17.7561 0.15713,0.17975 0.28609,0.52467 0.28609,0.7658 0,0.78924 1.77935,4.38489 3.0418,6.14756 6.40117,8.93498 15.96766,9.00976 22.35798,0.17189 0.47897,-0.66419 0.95036,-1.28485 1.04681,-1.37863 0.35219,-0.3483 2.23016,-4.69634 2.6051,-6.03481 1.14,-4.06116 1.40767,-5.99237 1.40767,-10.15735 0,-4.05781 -0.54074,-8.20604 -1.32855,-10.18637 -0.15064,-0.37955 -0.53642,-1.46573 -0.85826,-2.41348 -2.61919,-7.73271 -9.86884,-12.85883 -16.39028,-11.58734"
   fill="#040404"
   clip-rule="evenodd"
   fill-rule="evenodd"
   id="Right_Eye" />
	
		<rect
   height="71"
   width="268"
   stroke-miterlimit="10"
   stroke-width="0.991896"
   stroke="#000000"
   fill="#040404"
   clip-rule="evenodd"
   fill-rule="evenodd"
   y="174.20114"
   x="65.5"
   id="Blurt_Text_BG" />
	
		<path
   d="m 95.942001,208.047 v 23.955 l 14.968669,-0.112 c 15.77752,-0.118 15.37766,-0.084 18.91659,-1.576 9.08329,-3.83001 10.70916,-19.17299 2.4794,-23.4 -1.47364,-0.756 -1.52742,-0.953 -0.4496,-1.649 3.87486,-2.502 5.86201,-8.565 4.17425,-12.741 -3.07614,-7.612 -5.69559,-8.425 -27.15855,-8.429 l -12.930759,-0.002 v 23.954 M 146.6268,184.293 c -0.31969,0.315 -0.24763,16.03101 0.0842,18.17799 0.1573,1.01902 0.58052,3.59101 0.94081,5.71401 0.35928,2.12401 0.75812,4.487 0.88498,5.251 l 0.23242,1.39 h 4.54265 4.54266 l 0.38059,-2.162 c 0.58156,-3.291 1.33359,-7.80099 1.67459,-10.039 0.16847,-1.104 0.26895,-5.69099 0.22226,-10.19299 l -0.0832,-8.18502 -6.60392,-0.083 c -3.63128,-0.046 -6.69932,0.012 -6.81805,0.129 m 27.26714,0.006 c -0.11467,0.113 -0.20906,2.19799 -0.20906,4.63301 v 4.42698 h -2.6641 -2.66511 v 4.47901 4.479 h 2.66511 2.6641 v 5.868 5.869 h -2.6641 -2.66511 v 4.312 4.31199 l 2.58595,0.089 2.58696,0.09 0.0863,4.556 0.0873,4.556 h 5.16378 5.16377 v -4.63299 -4.633 h 3.2913 3.29232 v 4.633 4.63299 h 5.1719 5.17291 v -4.63299 -4.633 h 2.6641 2.6651 v -4.32499 -4.32401 h -2.6651 -2.6641 v -5.869 -5.868 h 2.6641 2.6651 v -4.479 -4.47901 h -2.65698 -2.656 l -0.0863,-4.556 -0.0873,-4.556 h -5.0156 -5.01561 l -0.0863,4.556 -0.0873,4.556 h -3.28317 -3.28319 v -4.63299 -4.633 h -4.96384 c -2.72905,0 -5.05722,0.092 -5.1719,0.206 m 40.43843,0 c -0.11467,0.113 -0.20806,10.88501 -0.20806,23.938 v 23.73199 h 6.57753 6.57753 l 0.0842,-7.95399 0.0832,-7.953 2.74426,-0.089 2.74428,-0.09 3.00307,6.113 c 1.65225,3.362 3.4344,6.981 3.96112,8.043 l 0.95604,1.92999 h 7.49499 7.49497 L 253.90816,228.34 c -1.06565,-1.99601 -2.71485,-5.08899 -3.66378,-6.873 -0.94891,-1.784 -2.20028,-4.107 -2.77877,-5.16401 -1.33257,-2.431 -1.34981,-2.32499 0.54499,-3.474 5.25918,-3.18798 7.84311,-9.04199 6.87084,-15.56199 -1.1783,-7.9 -5.5809,-11.901 -14.16386,-12.87399 -2.93203,-0.33201 -26.05942,-0.41501 -26.38521,-0.094 m 46.32684,0.18901 c -0.0862,0.21998 -0.1167,2.75699 -0.07,5.63899 l 0.0863,5.24 6.73992,0.154 6.7399,0.15499 0.0812,18.14602 0.0812,18.14698 h 6.73483 6.73483 l 0.0802,-18.14698 0.0812,-18.14602 6.7399,-0.15499 6.7399,-0.154 v -5.55999 -5.56002 l -20.30701,-0.079 c -16.38242,-0.064 -20.33743,-0.003 -20.46228,0.32001 M 121.14587,194.716 c 2.33831,0.963 2.98277,4.76799 1.10826,6.539 l -0.96009,0.907 -6.24971,0.101 -6.24972,0.10001 V 198.53 c 0,-2.108 0.0934,-3.925 0.20907,-4.038 0.42829,-0.423 11.04712,-0.227 12.14219,0.224 m 117.92556,0.68399 c 3.16037,1.47701 3.45976,7.04201 0.49627,9.23301 -0.7632,0.565 -1.32342,0.61801 -6.47805,0.61801 h -5.64281 l -0.0873,-4.77501 c -0.0477,-2.62599 -0.0162,-4.954 0.069,-5.17301 0.24968,-0.64299 10.24028,-0.55899 11.64287,0.097 M 191.16846,208.009 c 0.0994,7.206 0.42117,6.652 -3.86269,6.65801 -4.15193,0.006 -3.90329,0.42999 -3.90329,-6.64601 0,-6.993 -0.41002,-6.361 4.05856,-6.254 l 3.62217,0.086 0.0853,6.156 m -69.233,4.681 c 3.4689,1.368 3.62925,6.413 0.27097,8.54599 -0.73783,0.468 -1.68371,0.54001 -7.13165,0.54001 h -6.28017 v -4.78799 -4.78701 h 5.9493 c 4.69897,0 6.21115,0.103 7.19155,0.489 m 28.553,6.713 c -4.02304,1.26199 -5.59307,7.024 -2.91476,10.69501 3.06194,4.198 9.90332,3.60998 12.13812,-1.04302 2.88028,-5.99899 -2.5971,-11.73098 -9.22336,-9.65199"
   stroke-miterlimit="10"
   stroke-width="1.00742"
   stroke="#ffffff"
   fill="#fafafa"
   clip-rule="evenodd"
   fill-rule="evenodd"
   id="Blurt_Text" />
	
		<linearGradient
   y2="69.532776"
   x2="199.08891"
   y1="268.21313"
   x1="199.08891"
   gradientUnits="userSpaceOnUse"
   id="Orange_Face_1_">
		<stop
   id="stop898"
   style="stop-color:#F25B0E"
   offset="0.8052523" />
		<stop
   id="stop900"
   style="stop-color:#EC1C24"
   offset="1" />
	</linearGradient>
	<path
   style="fill:url(#Orange_Face_1_)"
   d="m 125.24672,70.695084 c -0.70966,0.633361 -1.709,1.500228 -2.22119,1.926147 -6.0632,5.039856 -20.79167,22.86525 -20.79167,25.163193 0,0.07216 -0.67157,1.299797 -1.4925,2.728886 -1.387242,2.41419 -5.009716,9.66681 -5.009716,10.02859 0,0.0882 -0.27565,0.75062 -0.613442,1.47217 -1.43235,3.06059 -4.75412,13.25756 -5.57003,17.09984 -1.701981,8.01024 -2.341484,12.541 -2.809578,19.89283 -0.462082,7.26165 -0.09623,15.63768 0.973274,22.26395 l 0.364853,2.26289 H 198.99432 c 97.52826,0 110.93964,-0.0551 111.094,-0.457 0.18445,-0.48103 0.54629,-3.30713 1.15072,-8.98434 1.62378,-15.25386 -1.8724,-37.61602 -8.08093,-51.69434 -0.29968,-0.68046 -0.89609,-2.07347 -1.3241,-3.09567 -5.39764,-12.87773 -17.58618,-29.381278 -27.72888,-37.54486 -0.78485,-0.631355 -1.699,-1.391998 -2.03076,-1.689636 -0.57135,-0.513107 -4.48349,-0.541168 -73.07002,-0.534157 l -72.46661,0.009 -1.29102,1.152481 m 34.37088,11.731178 c 3.16077,0.706291 5.47827,1.369316 5.62518,1.607757 0.0896,0.143876 0.40454,0.261597 0.70038,0.261597 0.9429,0 7.05412,3.273865 9.89389,5.30117 7.71427,5.507424 12.44284,10.79049 14.58525,16.29692 2.62743,6.75198 -2.22491,10.96454 -6.40507,5.56074 -2.90216,-3.75177 -10.49364,-10.20393 -15.03505,-12.777543 -5.41387,-3.068634 -13.29215,-5.955147 -16.35832,-5.993378 -5.26697,-0.0654 -7.2212,-4.92791 -3.59047,-8.932213 0.50314,-0.555374 1.14012,-1.010132 1.41383,-1.010132 0.27473,0 0.63095,-0.131805 0.79398,-0.292778 0.56855,-0.56443 5.88884,-0.578514 8.3764,-0.02214 m 88.01256,0.216324 c 5.23375,1.910591 4.46493,9.277305 -1.03347,9.910148 -1.79321,0.206254 -5.60304,1.011132 -6.47549,1.367295 -0.34215,0.139854 -1.32127,0.491989 -2.17561,0.782753 -8.13793,2.765785 -18.12641,9.819594 -23.43762,16.550444 -3.38218,4.28602 -7.95578,3.00826 -7.36004,-2.05648 0.60175,-5.12008 4.5746,-11.04705 10.7573,-16.045379 0.42264,-0.342079 1.46818,-1.204315 2.32351,-1.914619 2.91423,-2.422714 7.53011,-5.050659 12.74373,-7.25605 4.48104,-1.895501 11.40032,-2.526329 14.65769,-1.338112 m -75.52545,28.36415 c 13.79931,7.14637 13.55378,35.4572 -0.36428,42.10556 -14.91934,7.12726 -26.79864,-18.42282 -16.58877,-35.67956 4.04429,-6.83549 11.04106,-9.48759 16.95305,-6.426 m 64.28715,-0.14388 c 9.87578,4.68947 13.74599,21.95526 7.66193,34.18751 -8.70142,17.49719 -28.02129,8.55392 -28.02129,-12.97174 0,-15.33809 10.2471,-26.0159 20.35936,-21.21577 M 123.83043,245.75545 c 8.1671,0.0795 9.05766,0.13984 9.63528,0.64995 3.30266,2.9177 13.8788,9.12135 20.68438,12.13262 3.40731,1.50718 3.95877,1.73255 6.52784,2.67423 1.28202,0.46985 2.61034,0.9689 2.95247,1.10977 0.54541,0.22434 2.41309,0.79581 7.61563,2.33011 3.60556,1.06448 10.8217,2.39053 16.73571,3.07568 4.84429,0.56141 19.77771,0.66303 23.5805,0.16098 9.71678,-1.28378 9.49138,-1.24456 16.0977,-2.82415 12.98624,-3.10685 26.93852,-9.46444 37.58612,-17.12896 l 2.90717,-2.09271 8.81619,-0.0875 c 4.8483,-0.0483 -29.64949,-0.0875 -76.66159,-0.0875 -47.0121,0 -81.42737,0.0392 -76.4774,0.0875"
   fill="url(#Orange_Face_1_)"
   id="Orange_Face" />
</g></g><g
     id="g1561"
     transform="matrix(6.0032926,0,0,6.0032926,68.780819,19.506244)"
     style="stroke-width:0.166576"><ellipse
       style="fill-rule:evenodd;stroke-width:0.0350107"
       id="ellipse851"
       ry="7.1090002"
       rx="7.3280001"
       cy="10.478"
       cx="37.861"
       fill="#ffffff" /><path
       style="fill-rule:evenodd;stroke-width:0.0350107"
       id="path853"
       fill="#f76900"
       d="m 40.121,9.212 -3.34,6.998 c -0.108,0.225 -0.453,0.115 -0.407,-0.13 l 0.798,-4.302 a 0.355,0.355 0 0 0 -0.353,-0.417 h -1.27 a 0.23,0.23 0 0 1 -0.212,-0.328 l 3.34,-6.999 c 0.108,-0.224 0.453,-0.115 0.408,0.13 l -0.798,4.303 c -0.04,0.217 0.129,0.416 0.353,0.416 h 1.27 a 0.23,0.23 0 0 1 0.211,0.329 z M 44.937,4.909 38.48,1.238 a 1.827,1.827 0 0 0 -1.806,0 l -6.458,3.67 a 1.773,1.773 0 0 0 -0.903,1.54 v 7.342 c 0,0.635 0.344,1.222 0.903,1.54 L 36.673,19 a 1.825,1.825 0 0 0 1.806,0 l 6.458,-3.67 c 0.559,-0.318 0.903,-0.905 0.903,-1.54 V 6.45 c 0,-0.635 -0.344,-1.223 -0.903,-1.54 z"
       inkscape:transform-center-x="10.855414" /></g></g></svg>
